<?xml version="1.0" encoding="UTF-8"?>
<svg id="Camada_2" data-name="Camada 2" xmlns="http://www.w3.org/2000/svg" viewBox="0 0 541.97 186.75">
  <defs>
    <style>
      .cls-1 {
        fill: #fff;
      }
    </style>
  </defs>
  <g id="Layer_1" data-name="Layer 1">
    <g>
      <path class="cls-1" d="m169.44,180.09c-3.94-.68-7.88-1.37-11.66-2.73-6.2-2.24-9.06-6.15-8.38-11.63.16-1.29.53-2.56.94-3.8.41-1.24.04-1.72-1.23-1.71-2.63.02-5.26.08-7.88-.03-1.69-.07-2.61.56-3.42,2.07-2.85,5.29-6.97,9.37-12.36,12.1-9.51,4.82-19.75,5.89-30.09,4.73-11.84-1.32-22.78-5.6-32.93-11.93-14.92-9.31-25.35-22.29-31.84-38.5-3.22-8.05-4.93-16.45-5.63-25.11-.76-9.42-.69-18.81.61-28.13,2.04-14.56,7.08-28.01,15.79-39.96,5.35-7.33,12.04-13.18,19.91-17.64,13.38-7.58,27.79-10,42.97-8.09,12.19,1.54,23.37,5.85,33.67,12.5,4.23,2.73,7.17,6.31,7.73,11.45.28,2.6.73,5.18.65,7.82-.07,2.2,1.17,3.57,3.28,4.19.92.27,1.49.12,1.63-.94.19-1.45.45-2.88.67-4.32,1.45-9.28,3.51-18.42,6.03-27.46.78-2.8-.38-3.81-3.34-3.3-1.81.31-3.63.98-5.48.62-4.23-.83-8.45-1.76-12.48-3.3-8.77-3.34-17.88-5.31-27.18-5.8-12.49-.67-24.93,0-37.16,3.15-11.25,2.91-22.02,6.91-31.91,13.08-8.05,5.02-14.93,11.37-21.07,18.57-5.29,6.21-9.57,13.02-12.64,20.56C1.88,68.25-.25,80.46.14,93.84c-.45,5.84.2,12.39,1.5,18.79,4.87,23.96,17.32,42.97,37.62,56.78,15.23,10.36,32.19,15.58,50.36,17.01,8.22.65,16.52.23,24.69-.97,7.49-1.1,15.01-1.35,22.53-1.66,10.63-.43,21.24.35,31.8,1.73.96.13,2.53.46,2.42-1.22-.1-1.47,1.39-3.7-1.62-4.22Z"/>
      <path class="cls-1" d="m275.85,178.7c-.74.06-1.5-.27-2.26-.42-5.25-1.01-9.43-3.43-12.06-8.36-2.21-4.15-4.43-8.29-6.28-12.61-6.83-15.99-13.01-32.25-19.16-48.51-5.72-15.11-11.24-30.29-16.9-45.42-7.39-19.74-15.26-39.31-20.88-59.66-.68-2.46-2.15-2.08-3.81-2.21-1.76-.13-2.78.5-3.13,2.27-1.48,7.52-4.67,14.48-7.17,21.66-.43,1.22-.68,2.32-.2,3.55,4.77,12.18,9.53,24.36,14.29,36.54,5.09,13.04,10.24,26.06,15.25,39.13,4.66,12.14,9.26,24.3,13.72,36.51,3.16,8.66,6.97,17.15,8.71,26.26,1.09,5.71.31,8.4-5.6,10.33-1.9.62-3.8,1.21-5.79,1.53-2.16.35-2.63,1.46-2.22,4.39.3,2.15,1.98,1.5,3.06,1.32,1.69-.27,3.39-.17,5.06-.4,2.76-.39,5.53-.38,8.3-.5,6.23-.27,12.46-.84,18.68-.7,3.06.06,6.15.18,9.23.33,2.84.14,5.7.23,8.52.56,3.14.37,3.14.46,3.14-2.91.27-1.59-.13-2.89-2.5-2.69Z"/>
      <path class="cls-1" d="m194.54,145.84c-5.85-15.64-11.88-31.2-17.32-46.99-2.11-6.11-4.07-12.27-5.71-18.52-.36-1.37-.96-2.47-2.67-2.23-1.41.2-3.35-.74-3.9,1.44-1.97,7.78-4.89,15.23-7.62,22.75-.56,1.54-.25,2.88.29,4.25,9.38,24,18.77,48,28.15,72.01.51,1.3,1.25,2,2.74,1.96,2.78-.08,5.57-.02,8.35-.02,2.78,0,5.57-.05,8.35.03,1.59.04,2.11-.44,1.52-2.01-4.07-10.88-8.1-21.78-12.17-32.66Z"/>
      <path class="cls-1" d="m322.7,64.9h13.73c9.88,0,17.37-8.07,17.37-17.8s-8.21-17.8-17.95-17.8h-13.15c1.89.58,2.47,2.33,2.47,4.14v27.32c0,1.82-.51,3.56-2.47,4.14Zm5.89-35.02h4.21c10.46,0,17.15,6.76,17.15,17.22s-6.76,17.15-17.15,17.15h-4.21V29.88Z"/>
      <path class="cls-1" d="m381.55,56.76l-.44-.36c-7.41,12.28-20.78,6.25-20.78-5.52,0-.65,0-1.24.07-1.82h18.89c0-5.16-4.21-9.88-10.25-9.88-7.05,0-11.63,6.18-11.63,13.01,0,15.19,16.86,17.51,24.12,4.58Zm-6.18-8.36h-14.9c1.6-12.13,14.9-10.46,14.9,0Z"/>
      <path class="cls-1" d="m429.14,57.71l-.65-.44c-2.91,3.49-6.9,6.39-11.63,6.39-17.95,0-20.85-33.64-3.78-33.64,5.3,0,9.81,3.41,12.72,7.63v-5.09c-3.34-2.03-7.27-3.27-11.19-3.27-10.32,0-17.08,7.7-17.08,17.8s6.9,18.17,17.08,18.17c5.81,0,11.04-2.98,14.53-7.56Z"/>
      <path class="cls-1" d="m432.04,58.65c0,7.41,12.28,9.3,15.91,1.67v.44c0,1.89-.51,3.56-2.4,4.14h7.78c-1.89-.58-2.47-2.25-2.47-4.14v-13.59c-.07-5.16-2.62-7.77-7.85-7.77-4.8,0-7.48,2.62-9.59,6.1l2.83,2.69c-.44-3.49,1.74-8.36,6.25-8.36,3.2,0,5.45,2.76,5.45,5.45,0,6.32-15.91,3.92-15.91,13.37Zm15.91-11.12v9.88c0,7.7-12.57,10.68-12.5.94.07-7.99,9.23-6.68,12.5-10.83Z"/>
      <path class="cls-1" d="m475.13,58.07c0-8.28-16.35-6.47-16.35-13.95,0-3.05,3.7-4.51,6.32-4.51,3.71,0,7.63,2.47,8.79,6.1v-4.8c-1.82-.8-6.61-1.74-8.57-1.74-4.29,0-8.36,2.4-8.36,7.12,0,8.57,16.28,7.12,16.28,13.59,0,3.85-4.65,4.5-7.56,4.5-4.29,0-7.63-2.98-9.08-6.83v6.03c2.83.87,6.54,1.6,9.52,1.6,4.51,0,9.01-1.89,9.01-7.12Z"/>
      <path class="cls-1" d="m481.01,57.35c0,4,1.74,7.56,6.25,7.56,2.33,0,5.16-1.16,6.18-3.49-1.02,1.38-3.05,2.25-4.72,2.25-2.98,0-4.8-2.54-4.8-5.3v-18.24h9.01v-.65h-9.01v-4.29c-1.09,2.18-2.76,4.29-6.32,4.29v.65h3.42v17.22Z"/>
      <path class="cls-1" d="m508.98,39.4c-2.83,0-8.14,2.33-9.88,5.96v-3.05c0-1.74-1.09-2.83-2.83-2.83h-.07v21.29c0,1.89-.51,3.56-2.47,4.14h7.77c-1.89-.58-2.4-2.25-2.4-4.14v-13.81c0-1.74,2.76-4.94,5.59-4.94,2.04,0,3.05.87,4.29,1.96v-4.58Z"/>
      <path class="cls-1" d="m523.37,39.4c-7.05,0-12.79,5.74-12.79,12.79s5.74,12.79,12.86,12.79,12.72-5.74,12.72-12.79-5.74-12.79-12.79-12.79Zm.73,24.92c-6.47,0-10.17-7.19-10.17-13.08,0-5.23,2.91-11.12,8.57-11.12,6.47,0,10.1,7.12,10.1,13.08,0,5.23-2.83,11.12-8.5,11.12Z"/>
      <path class="cls-1" d="m347.99,110.18c2.25-2.98,3.42-9.45,5.81-10.54l-8.5-.36c1.67.73,3.71,1.74,3.71,4.07s-1.09,4.65-1.89,6.1c-9.23-7.56-17.44-15.84-17.44-20.49,0-3.56,2.54-5.74,5.96-5.74,4.29,0,5.74,5.16,5.01,8.65,1.23-1.02,1.82-2.25,1.82-3.49.07-3.12-3.27-5.81-6.83-5.81-4.51,0-8.14,3.2-8.14,7.41,0,2.33,1.16,4.58,2.18,6.25-4.72,2.03-7.56,6.47-7.56,11.41.44,6.76,5.09,11.04,12.28,11.04,4.58,0,8.14-1.6,11.84-6.03l6.54,4.94c1.09.8,2.11.94,3.12.94h4.51c-4.65-1.45-8.57-5.52-12.43-8.36Zm-12.28,7.27c-5.74,0-10.32-4.94-10.32-11.04,0-3.42,1.82-7.12,4.87-9.45,2.4,3.05,5.81,7.27,15.19,15.04-2.69,3.34-5.96,5.45-9.74,5.45Z"/>
      <path class="cls-1" d="m398.55,114.4l-12.13-32.04-12.28,32.19c-.65,1.53-2.25,3.27-3.78,3.85h7.41c-1.6-.51-2.76-1.45-2.76-3.27,0-.73.15-1.45.36-2.11l3.34-8.65h12.35l3.12,8.57c.65,2.03,1.31,3.85-1.09,5.45h8.94c-1.82-.58-2.83-2.33-3.49-4Zm-19.69-10.54l6.03-15.91,5.96,15.91h-11.99Z"/>
      <path class="cls-1" d="m427.54,124.93c0-10.1-14.9-9.15-19.18-9.15l3.12-3.27c1.02.36,2.18.51,3.27.51,5.74,0,11.33-4.29,11.33-10.32,0-3.78-2.03-6.76-5.01-8.5,1.24-.94,3.92-1.16,5.74-.73v-3.56c-1.67,0-5.09,2.76-6.1,4.07-1.74-1.02-3.78-1.53-5.89-1.53-5.67,0-11.12,4.36-11.12,10.25,0,4.58,3.05,8.14,7.12,9.59l-5.96,6.1c8.79,0,21.87.36,21.87,7.34,0,9.52-16.71,9.52-21.14-.15l-2.11,2.47c5.01,8.65,24.05,8.65,24.05-3.12Zm-20.56-22.96c0-4.07,2.47-8.94,7.05-8.94,5.3,0,8.65,5.67,8.65,10.46,0,4.14-2.54,8.94-7.19,8.94-5.38,0-8.5-5.67-8.5-10.46Z"/>
      <path class="cls-1" d="m454.57,105.68c0-7.05-5.74-12.79-12.79-12.79s-12.79,5.74-12.79,12.79,5.74,12.79,12.86,12.79,12.72-5.74,12.72-12.79Zm-12.06,12.13c-6.47,0-10.17-7.19-10.17-13.08,0-5.23,2.91-11.12,8.57-11.12,6.47,0,10.1,7.12,10.1,13.08,0,5.23-2.83,11.12-8.5,11.12Z"/>
      <path class="cls-1" d="m459.58,97.61c0-3.05,3.7-4.51,6.32-4.51,3.71,0,7.63,2.47,8.79,6.1v-4.8c-1.82-.8-6.61-1.74-8.57-1.74-4.29,0-8.36,2.4-8.36,7.12,0,8.57,16.28,7.12,16.28,13.59,0,3.85-4.65,4.5-7.56,4.5-4.29,0-7.63-2.98-9.08-6.83v6.03c2.83.87,6.54,1.6,9.52,1.6,4.51,0,9.01-1.89,9.01-7.12,0-8.28-16.35-6.47-16.35-13.95Z"/>
      <path class="cls-1" d="m489.51,117.16c-2.98,0-4.8-2.54-4.8-5.3v-18.24h9.01v-.65h-9.01v-4.29c-1.09,2.18-2.76,4.29-6.32,4.29v.65h3.42v17.22c0,4,1.74,7.56,6.25,7.56,2.33,0,5.16-1.16,6.18-3.49-1.02,1.38-3.05,2.25-4.72,2.25Z"/>
      <path class="cls-1" d="m501.06,88.09c0-1.24-.8-2.03-2.03-2.03s-2.11.8-2.11,2.03.87,2.03,2.11,2.03,2.03-.8,2.03-2.03Z"/>
      <path class="cls-1" d="m500.63,114.25v-18.38c0-1.74-1.16-2.91-2.91-2.91v21.29c0,1.89-.51,3.56-2.4,4.14h7.77c-1.89-.58-2.47-2.25-2.47-4.14Z"/>
      <path class="cls-1" d="m528.75,113.96v-12.28c0-12.35-12.79-10.61-17.08-2.98v-2.91c0-1.74-1.09-2.83-2.83-2.83v21c0,2.03-.51,3.71-2.54,4.43h8.07c-2.04-.73-2.62-2.4-2.62-4.43l-.07-13.95c2.76-7.19,14.17-9.59,14.17,1.02v12.93c0,1.96-.58,3.78-2.62,4.43h8.14c-2.04-.65-2.62-2.4-2.62-4.43Z"/>
      <path class="cls-1" d="m539.5,114.25v-18.38c0-1.74-1.16-2.91-2.91-2.91v21.29c0,1.89-.51,3.56-2.4,4.14h7.77c-1.89-.58-2.47-2.25-2.47-4.14Z"/>
      <path class="cls-1" d="m537.9,90.13c1.23,0,2.03-.8,2.03-2.03s-.8-2.03-2.03-2.03-2.11.8-2.11,2.03.87,2.03,2.11,2.03Z"/>
      <path class="cls-1" d="m329.41,146.06c-.02-.08-.07-.13-.13-.18-.06-.04-.14-.07-.24-.07-.09,0-.16.02-.22.05-.06.03-.1.1-.14.2l-5.06,12.44c-.02.08-.03.14-.02.19.01.09.05.16.11.23.06.06.16.09.28.09.08,0,.14-.02.21-.07.06-.04.11-.1.13-.18l1.53-3.83h6.29v-.03s1.56,3.87,1.56,3.87c.03.08.07.13.14.18.07.04.15.07.23.07.11,0,.21-.03.28-.09.08-.06.11-.15.11-.26,0-.06,0-.11-.02-.15l-5.05-12.44Zm-3.25,8.12l2.82-7.09,2.87,7.09h-5.69Z"/>
      <path class="cls-1" d="m350.18,147.85c-.44-.62-1.01-1.11-1.7-1.47-.69-.36-1.5-.54-2.44-.54h-4.89c-.1,0-.19.04-.26.11-.08.08-.11.16-.11.26v12.4c0,.1.04.19.11.26.07.08.16.11.26.11h4.89c1.27,0,2.3-.3,3.1-.89.8-.59,1.39-1.39,1.78-2.39.38-1,.57-2.1.57-3.3,0-.85-.11-1.67-.32-2.46-.21-.79-.54-1.49-.99-2.11Zm.02,7.52c-.33.88-.85,1.58-1.56,2.1-.71.52-1.64.78-2.79.78h-4.28v-11.65h4.28c.86,0,1.6.16,2.22.47.61.31,1.11.74,1.5,1.29.39.54.67,1.17.85,1.87.18.7.27,1.43.27,2.2,0,1.08-.17,2.06-.5,2.94Z"/>
      <path class="cls-1" d="m367.35,145.85c-.15,0-.27.08-.36.24l-4.8,11.54-4.77-11.48c-.09-.2-.22-.3-.41-.3-.09,0-.17.03-.24.1-.08.07-.11.15-.11.25,0,.05,0,.09.02.13.01.04.02.07.04.09l5.11,12.33c.02.08.07.13.14.18.07.04.14.07.22.07s.14-.02.21-.07c.06-.04.11-.1.15-.18l5.15-12.38c.02-.08.04-.14.04-.19,0-.1-.03-.18-.09-.24-.06-.06-.16-.09-.28-.09Z"/>
      <path class="cls-1" d="m383.66,147.54c-.56-.6-1.23-1.06-1.99-1.39-.76-.33-1.6-.49-2.52-.49s-1.75.16-2.52.49c-.76.33-1.43.79-1.99,1.39-.56.6-1,1.32-1.31,2.14-.31.83-.46,1.74-.46,2.74s.15,1.92.46,2.74c.31.83.74,1.54,1.31,2.14.56.6,1.23,1.07,1.99,1.39.76.33,1.6.49,2.52.49s1.75-.16,2.52-.49c.76-.33,1.43-.79,1.99-1.39.56-.6,1-1.32,1.31-2.14.31-.83.46-1.74.46-2.74s-.15-1.92-.46-2.74c-.31-.83-.74-1.54-1.31-2.14Zm.27,8.04c-.47.9-1.11,1.6-1.93,2.1-.82.5-1.77.75-2.85.75s-2.01-.25-2.84-.75c-.83-.5-1.47-1.2-1.94-2.1-.47-.9-.7-1.95-.7-3.16s.23-2.25.7-3.16c.47-.9,1.12-1.6,1.94-2.1.83-.5,1.77-.75,2.84-.75s2.03.25,2.85.75c.82.5,1.46,1.2,1.93,2.1s.7,1.95.7,3.16-.23,2.25-.7,3.16Z"/>
      <path class="cls-1" d="m393.54,148.07c.53-.54,1.14-.95,1.83-1.25.7-.29,1.44-.44,2.25-.44.7,0,1.36.11,1.98.32.62.21,1.19.5,1.72.86.09.05.18.07.27.07.09,0,.17-.05.23-.14.06-.1.09-.2.08-.29-.01-.09-.07-.18-.17-.25-.56-.4-1.2-.71-1.91-.94-.71-.23-1.44-.34-2.21-.34-.9,0-1.75.17-2.54.51-.79.34-1.48.81-2.09,1.42-.6.61-1.07,1.32-1.42,2.14-.34.82-.52,1.72-.52,2.7s.17,1.88.52,2.7c.34.82.82,1.53,1.42,2.14.6.61,1.3,1.08,2.09,1.42.79.34,1.64.51,2.54.51.51,0,1.03-.06,1.54-.18.51-.12,1-.28,1.46-.48.46-.2.84-.41,1.14-.62.09-.06.14-.14.15-.24.01-.1-.01-.19-.08-.28-.06-.09-.14-.14-.24-.15-.1-.01-.19.01-.28.08-.53.35-1.1.63-1.71.85-.61.21-1.27.32-1.97.32-.8,0-1.55-.15-2.25-.44-.69-.29-1.31-.71-1.83-1.25-.53-.54-.94-1.18-1.24-1.92-.3-.74-.45-1.55-.45-2.44s.15-1.7.45-2.44c.3-.74.71-1.38,1.24-1.92Z"/>
      <path class="cls-1" d="m412.78,146.06c-.02-.08-.07-.13-.13-.18-.06-.04-.14-.07-.24-.07-.09,0-.16.02-.22.05-.06.03-.1.1-.14.2l-5.06,12.44c-.02.08-.03.14-.02.19.01.09.05.16.11.23.06.06.16.09.28.09.08,0,.14-.02.21-.07.06-.04.11-.1.13-.18l1.53-3.83h6.29v-.03s1.56,3.87,1.56,3.87c.03.08.07.13.14.18.07.04.15.07.23.07.11,0,.21-.03.28-.09.08-.06.11-.15.11-.26,0-.06,0-.11-.02-.15l-5.05-12.44Zm-3.25,8.12l2.82-7.09,2.87,7.09h-5.69Z"/>
      <path class="cls-1" d="m425.6,148.07c.53-.54,1.14-.95,1.83-1.25.7-.29,1.44-.44,2.25-.44.7,0,1.36.11,1.98.32.62.21,1.19.5,1.72.86.09.05.18.07.27.07.09,0,.17-.05.23-.14.06-.1.09-.2.08-.29-.01-.09-.07-.18-.17-.25-.56-.4-1.2-.71-1.91-.94-.71-.23-1.44-.34-2.21-.34-.9,0-1.75.17-2.54.51-.79.34-1.48.81-2.09,1.42-.6.61-1.07,1.32-1.42,2.14-.34.82-.52,1.72-.52,2.7s.17,1.88.52,2.7c.34.82.82,1.53,1.42,2.14.6.61,1.3,1.08,2.09,1.42.79.34,1.64.51,2.54.51.51,0,1.03-.06,1.54-.18.51-.12,1-.28,1.46-.48.46-.2.84-.41,1.14-.62.09-.06.14-.14.15-.24.01-.1-.01-.19-.08-.28-.06-.09-.14-.14-.24-.15-.1-.01-.19.01-.28.08-.53.35-1.1.63-1.71.85-.61.21-1.27.32-1.97.32-.8,0-1.55-.15-2.25-.44-.69-.29-1.31-.71-1.83-1.25-.53-.54-.94-1.18-1.24-1.92-.3-.74-.45-1.55-.45-2.44s.15-1.7.45-2.44c.3-.74.71-1.38,1.24-1.92Z"/>
      <path class="cls-1" d="m440.65,145.85c-.11,0-.21.04-.28.11-.08.08-.11.17-.11.28v12.36c0,.11.03.21.1.28.07.08.17.11.29.11.1,0,.19-.04.26-.11.08-.08.12-.17.13-.28v-12.36c0-.11-.04-.21-.11-.28-.08-.08-.17-.11-.28-.11Z"/>
      <path class="cls-1" d="m453.15,146.06c-.02-.08-.07-.13-.13-.18-.06-.04-.14-.07-.24-.07-.09,0-.16.02-.22.05-.06.03-.1.1-.14.2l-5.06,12.44c-.02.08-.03.14-.02.19.01.09.05.16.11.23.06.06.16.09.28.09.08,0,.14-.02.21-.07.06-.04.11-.1.13-.18l1.53-3.83h6.29v-.03s1.56,3.87,1.56,3.87c.03.08.07.13.14.18.07.04.15.07.23.07.11,0,.21-.03.28-.09.08-.06.11-.15.11-.26,0-.06,0-.11-.02-.15l-5.05-12.44Zm-3.25,8.12l2.82-7.09,2.87,7.09h-5.69Z"/>
      <path class="cls-1" d="m298.04,0c-.83,0-1.5.67-1.5,1.5v183.75c0,.83.67,1.5,1.5,1.5s1.5-.67,1.5-1.5V1.5c0-.83-.67-1.5-1.5-1.5Z"/>
    </g>
  </g>
</svg>